<svg width="14" height="12" viewBox="0 0 14 12" fill="none" xmlns="http://www.w3.org/2000/svg">
<path fill-rule="evenodd" clip-rule="evenodd" d="M8.89713 0.351472C8.47378 -0.117157 7.78738 -0.117157 7.36402 0.351472C6.94066 0.820101 6.94066 1.5799 7.36402 2.04853L9.84969 4.8H1.08408C0.485358 4.8 0 5.33726 0 6C0 6.66274 0.485358 7.2 1.08408 7.2H9.84969L7.36402 9.95147C6.94066 10.4201 6.94066 11.1799 7.36402 11.6485C7.78738 12.1172 8.47378 12.1172 8.89713 11.6485L13.2328 6.84928C13.2332 6.84882 13.2336 6.84836 13.234 6.84789L14 6L13.234 5.15211C13.2336 5.15164 13.2332 5.15118 13.2328 5.15072L8.89713 0.351472Z" fill="white"/>
</svg>
